<svg width="12" height="12" viewBox="0 0 12 12" fill="none" xmlns="http://www.w3.org/2000/svg">
<g clip-path="url(#clip0_913_5308)">
<g clip-path="url(#clip1_913_5308)">
<path d="M5 7.5L3.46237 9.05685C3.24789 9.27401 3.14065 9.38259 3.04848 9.39025C2.96851 9.39689 2.89021 9.36474 2.83798 9.30382C2.77778 9.2336 2.77778 9.08099 2.77778 8.77577V7.99581C2.77778 7.72198 2.55354 7.52385 2.2826 7.48416V7.48416C1.62687 7.38811 1.11189 6.87313 1.01584 6.2174C1 6.10928 1 5.98026 1 5.72222V3.4C1 2.55992 1 2.13988 1.16349 1.81901C1.3073 1.53677 1.53677 1.3073 1.81901 1.16349C2.13988 1 2.55992 1 3.4 1H7.1C7.94008 1 8.36012 1 8.68099 1.16349C8.96323 1.3073 9.1927 1.53677 9.33651 1.81901C9.5 2.13988 9.5 2.55992 9.5 3.4V5.5M9.5 11L8.4118 10.2434C8.25883 10.1371 8.18234 10.0839 8.0991 10.0462C8.02522 10.0128 7.94755 9.98841 7.86779 9.97371C7.77792 9.95714 7.68477 9.95714 7.49846 9.95714H6.6C6.03995 9.95714 5.75992 9.95714 5.54601 9.84815C5.35785 9.75228 5.20487 9.5993 5.10899 9.41113C5 9.19722 5 8.9172 5 8.35714V7.1C5 6.53995 5 6.25992 5.10899 6.04601C5.20487 5.85785 5.35785 5.70487 5.54601 5.60899C5.75992 5.5 6.03995 5.5 6.6 5.5H9.4C9.96005 5.5 10.2401 5.5 10.454 5.60899C10.6422 5.70487 10.7951 5.85785 10.891 6.04601C11 6.25992 11 6.53995 11 7.1V8.45714C11 8.92308 11 9.15606 10.9239 9.33983C10.8224 9.58485 10.6277 9.77953 10.3827 9.88102C10.1989 9.95714 9.96594 9.95714 9.5 9.95714V11Z" stroke="current" strokeWidth="0.7" strokeLinecap="round" strokeLinejoin="round"/>
</g>
</g>
<defs>
<clipPath id="clip0_913_5308">
<rect width="12" height="12" fill="white"/>
</clipPath>
<clipPath id="clip1_913_5308">
<rect width="12" height="12" fill="white"/>
</clipPath>
</defs>
</svg>
