<svg width="12" height="12" viewBox="0 0 12 12" fill="none" xmlns="http://www.w3.org/2000/svg">
<g clip-path="url(#clip0_340_1575)">
<g clip-path="url(#clip1_340_1575)">
<path d="M4 1H1.88889C1.57775 1 1.42218 1 1.30334 1.06055C1.1988 1.11381 1.11381 1.1988 1.06055 1.30334C1 1.42218 1 1.57775 1 1.88889V4C1 4.31114 1 4.46671 1.06055 4.58555C1.11381 4.69009 1.1988 4.77507 1.30334 4.82834C1.42218 4.88889 1.57775 4.88889 1.88889 4.88889H4C4.31114 4.88889 4.46671 4.88889 4.58555 4.82834C4.69009 4.77507 4.77507 4.69009 4.82834 4.58555C4.88889 4.46671 4.88889 4.31114 4.88889 4V1.88889C4.88889 1.57775 4.88889 1.42218 4.82834 1.30334C4.77507 1.1988 4.69009 1.11381 4.58555 1.06055C4.46671 1 4.31114 1 4 1Z" stroke="current" stroke-width="0.8" stroke-linecap="round" stroke-linejoin="round"/>
<path d="M10.1111 1H8C7.68886 1 7.53329 1 7.41445 1.06055C7.30992 1.11381 7.22493 1.1988 7.17166 1.30334C7.11111 1.42218 7.11111 1.57775 7.11111 1.88889V4C7.11111 4.31114 7.11111 4.46671 7.17166 4.58555C7.22493 4.69009 7.30992 4.77507 7.41445 4.82834C7.53329 4.88889 7.68886 4.88889 8 4.88889H10.1111C10.4223 4.88889 10.5778 4.88889 10.6967 4.82834C10.8012 4.77507 10.8862 4.69009 10.9394 4.58555C11 4.46671 11 4.31114 11 4V1.88889C11 1.57775 11 1.42218 10.9394 1.30334C10.8862 1.1988 10.8012 1.11381 10.6967 1.06055C10.5778 1 10.4223 1 10.1111 1Z" stroke="current" stroke-width="0.8" stroke-linecap="round" stroke-linejoin="round"/>
<path d="M10.1111 7.11111H8C7.68886 7.11111 7.53329 7.11111 7.41445 7.17166C7.30992 7.22493 7.22493 7.30992 7.17166 7.41445C7.11111 7.53329 7.11111 7.68886 7.11111 8V10.1111C7.11111 10.4223 7.11111 10.5778 7.17166 10.6967C7.22493 10.8012 7.30992 10.8862 7.41445 10.9394C7.53329 11 7.68886 11 8 11H10.1111C10.4223 11 10.5778 11 10.6967 10.9394C10.8012 10.8862 10.8862 10.8012 10.9394 10.6967C11 10.5778 11 10.4223 11 10.1111V8C11 7.68886 11 7.53329 10.9394 7.41445C10.8862 7.30992 10.8012 7.22493 10.6967 7.17166C10.5778 7.11111 10.4223 7.11111 10.1111 7.11111Z" stroke="current" stroke-width="0.8" stroke-linecap="round" stroke-linejoin="round"/>
<path d="M4 7.11111H1.88889C1.57775 7.11111 1.42218 7.11111 1.30334 7.17166C1.1988 7.22493 1.11381 7.30992 1.06055 7.41445C1 7.53329 1 7.68886 1 8V10.1111C1 10.4223 1 10.5778 1.06055 10.6967C1.11381 10.8012 1.1988 10.8862 1.30334 10.9394C1.42218 11 1.57775 11 1.88889 11H4C4.31114 11 4.46671 11 4.58555 10.9394C4.69009 10.8862 4.77507 10.8012 4.82834 10.6967C4.88889 10.5778 4.88889 10.4223 4.88889 10.1111V8C4.88889 7.68886 4.88889 7.53329 4.82834 7.41445C4.77507 7.30992 4.69009 7.22493 4.58555 7.17166C4.46671 7.11111 4.31114 7.11111 4 7.11111Z" stroke="current" stroke-width="0.8" stroke-linecap="round" stroke-linejoin="round"/>
</g>
</g>
<defs>
<clipPath id="clip0_340_1575">
<rect width="12" height="12" fill="white"/>
</clipPath>
<clipPath id="clip1_340_1575">
<rect width="12" height="12" fill="white"/>
</clipPath>
</defs>
</svg>
