<svg width="25" height="26" viewBox="0 0 25 26" fill="none" xmlns="http://www.w3.org/2000/svg">
<path d="M0 2.16667C0 1.24619 0.746192 0.5 1.66667 0.5H15C15.9205 0.5 16.6667 1.24619 16.6667 2.16667V15.5C16.6667 16.4205 15.9205 17.1667 15 17.1667H1.66667C0.746192 17.1667 0 16.4205 0 15.5V2.16667Z" fill="#0099FF"/>
<path d="M8.33331 10.5C8.33331 9.57955 9.0795 8.83336 9.99998 8.83336H23.3333C24.2538 8.83336 25 9.57955 25 10.5V23.8334C25 24.7538 24.2538 25.5 23.3333 25.5H9.99998C9.0795 25.5 8.33331 24.7538 8.33331 23.8334V10.5Z" fill="#999999"/>
</svg>
