<svg width="15" height="15" viewBox="0 0 15 15" fill="none" xmlns="http://www.w3.org/2000/svg">
<g clip-path="url(#clip0_913_5299)">
<path d="M5 3H8.83726C9.08185 3 9.20414 3 9.31923 3.02763C9.42127 3.05213 9.51881 3.09253 9.60828 3.14736C9.7092 3.2092 9.79568 3.29568 9.96863 3.46863L11.5314 5.03137C11.7043 5.20432 11.7908 5.2908 11.8526 5.39172C11.9075 5.48119 11.9479 5.57873 11.9724 5.68077C12 5.79586 12 5.91815 12 6.16274V10M7.75 6.5H5.8C5.51997 6.5 5.37996 6.5 5.273 6.4455C5.17892 6.39757 5.10243 6.32108 5.0545 6.227C5 6.12004 5 5.98003 5 5.7V4.75M8.25 12V9.8C8.25 9.51997 8.25 9.37996 8.1955 9.273C8.14757 9.17892 8.07108 9.10243 7.977 9.0545C7.87004 9 7.73003 9 7.45 9H5.8C5.51997 9 5.37996 9 5.273 9.0545C5.17892 9.10243 5.10243 9.17892 5.0545 9.273C5 9.37996 5 9.51997 5 9.8V12M10.25 6.58137V10.4C10.25 10.9601 10.25 11.2401 10.141 11.454C10.0451 11.6422 9.89215 11.7951 9.70399 11.891C9.49008 12 9.21005 12 8.65 12H4.6C4.03995 12 3.75992 12 3.54601 11.891C3.35785 11.7951 3.20487 11.6422 3.10899 11.454C3 11.2401 3 10.9601 3 10.4V6.35C3 5.78995 3 5.50992 3.10899 5.29601C3.20487 5.10785 3.35785 4.95487 3.54601 4.85899C3.75992 4.75 4.03995 4.75 4.6 4.75H8.41863C8.54092 4.75 8.60207 4.75 8.65962 4.76382C8.71063 4.77606 8.75941 4.79627 8.80414 4.82368C8.8546 4.8546 8.89784 4.89784 8.98431 4.98431L10.0157 6.01569C10.1022 6.10216 10.1454 6.1454 10.1763 6.19586C10.2037 6.24059 10.2239 6.28937 10.2362 6.34038C10.25 6.39793 10.25 6.45908 10.25 6.58137Z" stroke="current" strokeWidth="0.8" strokeLinecap="round" strokeLinejoin="round"/>
</g>
<defs>
<clipPath id="clip0_913_5299">
<rect width="11" height="11" fill="white" transform="translate(2 2)"/>
</clipPath>
</defs>
</svg>
