<svg width="13" height="13" viewBox="0 0 13 13" fill="none" xmlns="http://www.w3.org/2000/svg">
<g clip-path="url(#clip0_913_5290)">
<path d="M8.02525 5H3.25C2.55964 5 2 4.44036 2 3.75C2 3.05964 2.55964 2.5 3.25 2.5H8.02525M4.97475 10.5H9.75C10.4404 10.5 11 9.94036 11 9.25C11 8.55964 10.4404 8 9.75 8H4.97475M2 9.25C2 10.2165 2.7835 11 3.75 11C4.7165 11 5.5 10.2165 5.5 9.25C5.5 8.2835 4.7165 7.5 3.75 7.5C2.7835 7.5 2 8.2835 2 9.25ZM11 3.75C11 4.7165 10.2165 5.5 9.25 5.5C8.2835 5.5 7.5 4.7165 7.5 3.75C7.5 2.7835 8.2835 2 9.25 2C10.2165 2 11 2.7835 11 3.75Z" stroke="current" strokeWidth="0.6" strokeLinecap="round" strokeLinejoin="round"/>
</g>
<defs>
<clipPath id="clip0_913_5290">
<rect width="11" height="11" fill="white" transform="translate(1 1)"/>
</clipPath>
</defs>
</svg>
