<svg width="11" height="12" viewBox="0 0 11 12" fill="none" xmlns="http://www.w3.org/2000/svg">
<g clip-path="url(#clip0_340_1584)">
<path d="M7.5 3V2.6C7.5 2.03995 7.5 1.75992 7.39101 1.54601C7.29513 1.35785 7.14215 1.20487 6.95399 1.10899C6.74008 1 6.46005 1 5.9 1H5.1C4.53995 1 4.25992 1 4.04601 1.10899C3.85785 1.20487 3.70487 1.35785 3.60899 1.54601C3.5 1.75992 3.5 2.03995 3.5 2.6V3M4.5 5.75V8.25M6.5 5.75V8.25M1 3H10M9 3V8.6C9 9.44008 9 9.86012 8.83651 10.181C8.6927 10.4632 8.46323 10.6927 8.18099 10.8365C7.86012 11 7.44008 11 6.6 11H4.4C3.55992 11 3.13988 11 2.81901 10.8365C2.53677 10.6927 2.3073 10.4632 2.16349 10.181C2 9.86012 2 9.44008 2 8.6V3" stroke="current" strokeWidth="0.8" strokeLinecap="round" strokeLinejoin="round"/>
</g>
<defs>
<clipPath id="clip0_340_1584">
<rect width="11" height="11" fill="white" transform="translate(0 0.5)"/>
</clipPath>
</defs>
</svg>
