<svg width="11" height="12" viewBox="0 0 11 12" fill="none" xmlns="http://www.w3.org/2000/svg">
<g clip-path="url(#clip0_913_5281)">
<g clip-path="url(#clip1_913_5281)">
<path d="M9.88889 11C9.88889 10.2247 9.88889 9.83703 9.7932 9.52159C9.57776 8.81136 9.02197 8.25558 8.31175 8.04013C7.9963 7.94444 7.60865 7.94444 6.83333 7.94444H4.05556C3.28024 7.94444 2.89259 7.94444 2.57714 8.04013C1.86692 8.25558 1.31113 8.81136 1.09569 9.52159C1 9.83703 1 10.2247 1 11M7.94444 3.5C7.94444 4.88071 6.82516 6 5.44444 6C4.06373 6 2.94444 4.88071 2.94444 3.5C2.94444 2.11929 4.06373 1 5.44444 1C6.82516 1 7.94444 2.11929 7.94444 3.5Z" stroke="current" strokeWidth="0.8" strokeLinecap="round" strokeLinejoin="round"/>
</g>
</g>
<defs>
<clipPath id="clip0_913_5281">
<rect width="10.8889" height="12" fill="white"/>
</clipPath>
<clipPath id="clip1_913_5281">
<rect width="10.8889" height="12" fill="white"/>
</clipPath>
</defs>
</svg>
